# MagicaVoxel @ ephtracy

# material
mtllib rooster.mtl
usemtl palette

# normals
vn -1 0 0
vn 1 0 0
vn 0 0 1
vn 0 0 -1
vn 0 -1 0
vn 0 1 0

# texcoords
vt 0.0214844 0.5
vt 0.845703 0.5
vt 0.849609 0.5
vt 0.857422 0.5
vt 0.869141 0.5
vt 0.958984 0.5

# verts
v -8 5 1
v -8 5 -0
v -8 6 1
v -8 6 -0
v -7 6 1
v -7 6 -0
v -7 7 1
v -7 7 -0
v -6 4 1
v -6 4 -0
v -6 5 3
v -6 5 1
v -6 5 -0
v -6 5 -2
v -6 6 3
v -6 6 2
v -6 6 -1
v -6 6 -2
v -6 7 2
v -6 7 1
v -6 7 -0
v -6 7 -1
v -6 8 1
v -6 8 -0
v -5 0 6
v -5 0 -5
v -5 4 1
v -5 4 -0
v -5 5 6
v -5 5 5
v -5 5 3
v -5 5 1
v -5 5 -0
v -5 5 -2
v -5 5 -4
v -5 5 -5
v -5 6 3
v -5 6 2
v -5 6 -1
v -5 6 -2
v -5 7 2
v -5 7 1
v -5 7 -0
v -5 7 -1
v -5 8 1
v -5 8 -0
v -5 10 5
v -5 10 1
v -5 10 -0
v -5 10 -4
v -4 5 6
v -4 5 5
v -4 5 -4
v -4 5 -5
v -4 9 6
v -4 9 5
v -4 9 -4
v -4 9 -5
v -2 10 1
v -2 10 -0
v -2 11 1
v -2 11 -0
v 0 9 6
v 0 9 5
v 0 9 -4
v 0 9 -5
v 0 10 6
v 0 10 5
v 0 10 -4
v 0 10 -5
v 1 4 9
v 1 4 6
v 1 4 -5
v 1 4 -8
v 1 5 9
v 1 5 7
v 1 5 -6
v 1 5 -8
v 1 6 7
v 1 6 6
v 1 6 -5
v 1 6 -6
v 5 11 1
v 5 11 -0
v 5 12 1
v 5 12 -0
v 6 12 1
v 6 12 -0
v 6 13 1
v 6 13 -0
v 7 13 1
v 7 13 -0
v 7 14 1
v 7 14 -0
v 2 4 9
v 2 4 8
v 2 4 -7
v 2 4 -8
v 2 5 9
v 2 5 8
v 2 5 7
v 2 5 6
v 2 5 -5
v 2 5 -6
v 2 5 -7
v 2 5 -8
v 2 6 7
v 2 6 6
v 2 6 -5
v 2 6 -6
v 3 4 8
v 3 4 7
v 3 4 -6
v 3 4 -7
v 3 5 8
v 3 5 7
v 3 5 -6
v 3 5 -7
v 4 4 7
v 4 4 6
v 4 4 -5
v 4 4 -6
v 4 5 7
v 4 5 6
v 4 5 -5
v 4 5 -6
v 5 0 6
v 5 0 -5
v 5 4 1
v 5 4 -0
v 5 10 6
v 5 10 1
v 5 10 -0
v 5 10 -5
v 6 4 1
v 6 4 -0
v 6 7 1
v 6 7 -0
v 7 7 1
v 7 7 -0
v 7 8 1
v 7 8 -0
v 8 8 1
v 8 8 -0
v 8 9 1
v 8 9 -0
v 8 11 1
v 8 11 -0
v 8 14 1
v 8 14 -0
v 9 9 1
v 9 9 -0
v 9 11 1
v 9 11 -0
v 1 4 9
v 1 5 9
v 2 4 9
v 2 5 9
v 2 4 8
v 2 5 8
v 3 4 8
v 3 5 8
v 1 5 7
v 1 6 7
v 2 5 7
v 2 6 7
v 3 4 7
v 3 5 7
v 4 4 7
v 4 5 7
v -5 0 6
v -5 5 6
v -4 5 6
v -4 9 6
v -3 6 6
v -3 8 6
v -1 6 6
v -1 8 6
v 0 5 6
v 0 9 6
v 0 10 6
v 1 4 6
v 1 6 6
v 2 5 6
v 2 6 6
v 4 4 6
v 4 5 6
v 5 0 6
v 5 10 6
v -5 5 5
v -5 10 5
v -4 5 5
v -4 9 5
v 0 9 5
v 0 10 5
v -6 5 3
v -6 6 3
v -5 5 3
v -5 6 3
v -6 6 2
v -6 7 2
v -5 6 2
v -5 7 2
v -8 5 1
v -8 6 1
v -7 6 1
v -7 7 1
v -6 4 1
v -6 5 1
v -6 7 1
v -6 8 1
v -5 4 1
v -5 5 1
v -5 7 1
v -5 8 1
v -2 10 1
v -2 11 1
v 5 4 1
v 5 10 1
v 5 11 1
v 5 12 1
v 6 4 1
v 6 7 1
v 6 9 1
v 6 10 1
v 6 12 1
v 6 13 1
v 7 7 1
v 7 8 1
v 7 9 1
v 7 13 1
v 7 14 1
v 8 8 1
v 8 9 1
v 8 11 1
v 8 14 1
v 9 9 1
v 9 11 1
v -8 5 -0
v -8 6 -0
v -7 6 -0
v -7 7 -0
v -6 4 -0
v -6 5 -0
v -6 7 -0
v -6 8 -0
v -5 4 -0
v -5 5 -0
v -5 7 -0
v -5 8 -0
v -2 10 -0
v -2 11 -0
v 5 4 -0
v 5 10 -0
v 5 11 -0
v 5 12 -0
v 6 4 -0
v 6 7 -0
v 6 9 -0
v 6 10 -0
v 6 12 -0
v 6 13 -0
v 7 7 -0
v 7 8 -0
v 7 9 -0
v 7 13 -0
v 7 14 -0
v 8 8 -0
v 8 9 -0
v 8 11 -0
v 8 14 -0
v 9 9 -0
v 9 11 -0
v -6 6 -1
v -6 7 -1
v -5 6 -1
v -5 7 -1
v -6 5 -2
v -6 6 -2
v -5 5 -2
v -5 6 -2
v -5 5 -4
v -5 10 -4
v -4 5 -4
v -4 9 -4
v 0 9 -4
v 0 10 -4
v -5 0 -5
v -5 5 -5
v -4 5 -5
v -4 9 -5
v -3 6 -5
v -3 8 -5
v -1 6 -5
v -1 8 -5
v 0 5 -5
v 0 9 -5
v 0 10 -5
v 1 4 -5
v 1 6 -5
v 2 5 -5
v 2 6 -5
v 4 4 -5
v 4 5 -5
v 5 0 -5
v 5 10 -5
v 1 5 -6
v 1 6 -6
v 2 5 -6
v 2 6 -6
v 3 4 -6
v 3 5 -6
v 4 4 -6
v 4 5 -6
v 2 4 -7
v 2 5 -7
v 3 4 -7
v 3 5 -7
v 1 4 -8
v 1 5 -8
v 2 4 -8
v 2 5 -8
v -5 0 6
v 5 0 6
v -5 0 -5
v 5 0 -5
v 1 4 9
v 2 4 9
v 2 4 8
v 3 4 8
v 3 4 7
v 4 4 7
v 1 4 6
v 4 4 6
v -6 4 1
v -5 4 1
v 5 4 1
v 6 4 1
v -6 4 -0
v -5 4 -0
v 5 4 -0
v 6 4 -0
v 1 4 -5
v 4 4 -5
v 3 4 -6
v 4 4 -6
v 2 4 -7
v 3 4 -7
v 1 4 -8
v 2 4 -8
v -6 5 3
v -5 5 3
v -8 5 1
v -6 5 1
v -5 5 1
v -8 5 -0
v -6 5 -0
v -5 5 -0
v -6 5 -2
v -5 5 -2
v 6 7 1
v 7 7 1
v 6 7 -0
v 7 7 -0
v 7 8 1
v 8 8 1
v 7 8 -0
v 8 8 -0
v 8 9 1
v 9 9 1
v 8 9 -0
v 9 9 -0
v 1 5 9
v 2 5 9
v 2 5 8
v 3 5 8
v 1 5 7
v 2 5 7
v 3 5 7
v 4 5 7
v -5 5 6
v -4 5 6
v 2 5 6
v 4 5 6
v -5 5 5
v -4 5 5
v -5 5 -4
v -4 5 -4
v -5 5 -5
v -4 5 -5
v 2 5 -5
v 4 5 -5
v 1 5 -6
v 2 5 -6
v 3 5 -6
v 4 5 -6
v 2 5 -7
v 3 5 -7
v 1 5 -8
v 2 5 -8
v 1 6 7
v 2 6 7
v 1 6 6
v 2 6 6
v -6 6 3
v -5 6 3
v -6 6 2
v -5 6 2
v -8 6 1
v -7 6 1
v -8 6 -0
v -7 6 -0
v -6 6 -1
v -5 6 -1
v -6 6 -2
v -5 6 -2
v 1 6 -5
v 2 6 -5
v 1 6 -6
v 2 6 -6
v -6 7 2
v -5 7 2
v -7 7 1
v -6 7 1
v -5 7 1
v -7 7 -0
v -6 7 -0
v -5 7 -0
v -6 7 -1
v -5 7 -1
v -6 8 1
v -5 8 1
v -6 8 -0
v -5 8 -0
v -4 9 6
v 0 9 6
v -4 9 5
v 0 9 5
v -4 9 -4
v 0 9 -4
v -4 9 -5
v 0 9 -5
v 0 10 6
v 5 10 6
v -5 10 5
v 0 10 5
v -5 10 1
v -2 10 1
v 5 10 1
v -5 10 -0
v -2 10 -0
v 5 10 -0
v -5 10 -4
v 0 10 -4
v 0 10 -5
v 5 10 -5
v -2 11 1
v 5 11 1
v 8 11 1
v 9 11 1
v -2 11 -0
v 5 11 -0
v 8 11 -0
v 9 11 -0
v 5 12 1
v 6 12 1
v 5 12 -0
v 6 12 -0
v 6 13 1
v 7 13 1
v 6 13 -0
v 7 13 -0
v 7 14 1
v 8 14 1
v 7 14 -0
v 8 14 -0

# faces
f 3/1/1 2/1/1 1/1/1
f 4/1/1 2/1/1 3/1/1
f 7/1/1 6/1/1 5/1/1
f 8/1/1 6/1/1 7/1/1
f 12/1/1 10/1/1 9/1/1
f 13/1/1 10/1/1 12/1/1
f 15/1/1 12/1/1 11/1/1
f 16/1/1 12/1/1 15/1/1
f 17/1/1 14/1/1 13/1/1
f 18/1/1 14/1/1 17/1/1
f 19/1/1 12/1/1 16/1/1
f 20/1/1 12/1/1 19/1/1
f 21/1/1 17/1/1 13/1/1
f 22/1/1 17/1/1 21/1/1
f 23/1/1 21/1/1 20/1/1
f 24/1/1 21/1/1 23/1/1
f 27/3/1 26/3/1 25/3/1
f 28/3/1 26/3/1 27/3/1
f 29/3/1 27/3/1 25/3/1
f 30/3/1 27/3/1 29/3/1
f 31/3/1 27/3/1 30/3/1
f 32/3/1 27/3/1 31/3/1
f 33/3/1 26/3/1 28/3/1
f 34/3/1 26/3/1 33/3/1
f 35/3/1 26/3/1 34/3/1
f 36/3/1 26/3/1 35/3/1
f 37/3/1 31/3/1 30/3/1
f 40/3/1 35/3/1 34/3/1
f 41/3/1 38/3/1 37/3/1
f 44/3/1 40/3/1 39/3/1
f 45/3/1 42/3/1 41/3/1
f 46/3/1 44/3/1 43/3/1
f 47/3/1 45/3/1 41/3/1
f 47/3/1 37/3/1 30/3/1
f 47/3/1 41/3/1 37/3/1
f 48/4/1 46/4/1 45/4/1
f 48/3/1 45/3/1 47/3/1
f 49/3/1 44/3/1 46/3/1
f 49/4/1 46/4/1 48/4/1
f 50/3/1 35/3/1 40/3/1
f 50/3/1 44/3/1 49/3/1
f 50/3/1 40/3/1 44/3/1
f 55/5/1 52/5/1 51/5/1
f 56/5/1 52/5/1 55/5/1
f 57/5/1 54/5/1 53/5/1
f 58/5/1 54/5/1 57/5/1
f 61/2/1 60/2/1 59/2/1
f 62/2/1 60/2/1 61/2/1
f 67/3/1 64/3/1 63/3/1
f 68/3/1 64/3/1 67/3/1
f 69/3/1 66/3/1 65/3/1
f 70/3/1 66/3/1 69/3/1
f 75/4/1 72/4/1 71/4/1
f 76/4/1 72/4/1 75/4/1
f 77/4/1 74/4/1 73/4/1
f 78/4/1 74/4/1 77/4/1
f 79/4/1 72/4/1 76/4/1
f 80/4/1 72/4/1 79/4/1
f 81/4/1 77/4/1 73/4/1
f 82/4/1 77/4/1 81/4/1
f 85/2/1 84/2/1 83/2/1
f 86/2/1 84/2/1 85/2/1
f 89/2/1 88/2/1 87/2/1
f 90/2/1 88/2/1 89/2/1
f 93/2/1 92/2/1 91/2/1
f 94/2/1 92/2/1 93/2/1
f 95/4/2 96/4/2 99/4/2
f 99/4/2 96/4/2 100/4/2
f 97/4/2 98/4/2 105/4/2
f 105/4/2 98/4/2 106/4/2
f 101/4/2 102/4/2 107/4/2
f 107/4/2 102/4/2 108/4/2
f 103/4/2 104/4/2 109/4/2
f 109/4/2 104/4/2 110/4/2
f 111/4/2 112/4/2 115/4/2
f 115/4/2 112/4/2 116/4/2
f 113/4/2 114/4/2 117/4/2
f 117/4/2 114/4/2 118/4/2
f 119/4/2 120/4/2 123/4/2
f 123/4/2 120/4/2 124/4/2
f 121/4/2 122/4/2 125/4/2
f 125/4/2 122/4/2 126/4/2
f 127/3/2 128/3/2 129/3/2
f 129/3/2 128/3/2 130/3/2
f 127/3/2 129/3/2 131/3/2
f 131/3/2 129/3/2 132/3/2
f 130/3/2 128/3/2 133/3/2
f 133/3/2 128/3/2 134/3/2
f 135/4/2 136/4/2 137/4/2
f 137/4/2 136/4/2 138/4/2
f 139/4/2 140/4/2 141/4/2
f 141/4/2 140/4/2 142/4/2
f 143/2/2 144/2/2 145/2/2
f 145/2/2 144/2/2 146/2/2
f 147/2/2 148/2/2 149/2/2
f 149/2/2 148/2/2 150/2/2
f 151/2/2 152/2/2 153/2/2
f 153/2/2 152/2/2 154/2/2
f 157/4/3 156/4/3 155/4/3
f 158/4/3 156/4/3 157/4/3
f 161/4/3 160/4/3 159/4/3
f 162/4/3 160/4/3 161/4/3
f 165/4/3 164/4/3 163/4/3
f 166/4/3 164/4/3 165/4/3
f 169/4/3 168/4/3 167/4/3
f 170/4/3 168/4/3 169/4/3
f 173/3/3 172/3/3 171/3/3
f 175/5/3 174/5/3 173/5/3
f 176/5/3 174/5/3 175/5/3
f 177/5/3 175/5/3 173/5/3
f 177/6/3 176/6/3 175/6/3
f 178/5/3 174/5/3 176/5/3
f 178/6/3 176/6/3 177/6/3
f 179/3/3 173/3/3 171/3/3
f 179/5/3 177/5/3 173/5/3
f 179/5/3 178/5/3 177/5/3
f 180/5/3 174/5/3 178/5/3
f 180/5/3 178/5/3 179/5/3
f 182/3/3 179/3/3 171/3/3
f 182/3/3 181/3/3 180/3/3
f 182/3/3 180/3/3 179/3/3
f 183/3/3 181/3/3 182/3/3
f 185/3/3 181/3/3 183/3/3
f 186/3/3 182/3/3 171/3/3
f 187/3/3 185/3/3 184/3/3
f 188/3/3 186/3/3 171/3/3
f 188/3/3 187/3/3 186/3/3
f 189/3/3 185/3/3 187/3/3
f 189/3/3 187/3/3 188/3/3
f 189/3/3 181/3/3 185/3/3
f 192/3/3 191/3/3 190/3/3
f 193/3/3 191/3/3 192/3/3
f 194/3/3 191/3/3 193/3/3
f 195/3/3 191/3/3 194/3/3
f 198/1/3 197/1/3 196/1/3
f 199/1/3 197/1/3 198/1/3
f 202/1/3 201/1/3 200/1/3
f 203/1/3 201/1/3 202/1/3
f 206/1/3 205/1/3 204/1/3
f 209/1/3 206/1/3 204/1/3
f 209/1/3 207/1/3 206/1/3
f 210/1/3 207/1/3 209/1/3
f 212/1/3 209/1/3 208/1/3
f 213/1/3 209/1/3 212/1/3
f 214/1/3 211/1/3 210/1/3
f 215/1/3 211/1/3 214/1/3
f 219/2/3 217/2/3 216/2/3
f 220/2/3 217/2/3 219/2/3
f 222/4/3 219/4/3 218/4/3
f 223/4/3 219/4/3 222/4/3
f 224/4/3 219/4/3 223/4/3
f 225/2/3 221/2/3 220/2/3
f 225/4/3 219/4/3 224/4/3
f 225/2/3 220/2/3 219/2/3
f 226/2/3 221/2/3 225/2/3
f 228/4/3 224/4/3 223/4/3
f 229/4/3 224/4/3 228/4/3
f 230/2/3 227/2/3 226/2/3
f 230/4/3 224/4/3 229/4/3
f 230/2/3 226/2/3 225/2/3
f 230/2/3 225/2/3 224/2/3
f 231/2/3 227/2/3 230/2/3
f 233/2/3 232/2/3 231/2/3
f 233/2/3 231/2/3 230/2/3
f 233/2/3 230/2/3 229/2/3
f 234/2/3 232/2/3 233/2/3
f 235/2/3 232/2/3 234/2/3
f 236/2/3 232/2/3 235/2/3
f 237/2/3 235/2/3 234/2/3
f 238/2/3 235/2/3 237/2/3
f 239/1/4 240/1/4 241/1/4
f 239/1/4 241/1/4 244/1/4
f 241/1/4 242/1/4 244/1/4
f 244/1/4 242/1/4 245/1/4
f 243/1/4 244/1/4 247/1/4
f 247/1/4 244/1/4 248/1/4
f 245/1/4 246/1/4 249/1/4
f 249/1/4 246/1/4 250/1/4
f 251/2/4 252/2/4 254/2/4
f 254/2/4 252/2/4 255/2/4
f 253/4/4 254/4/4 257/4/4
f 257/4/4 254/4/4 258/4/4
f 258/4/4 254/4/4 259/4/4
f 255/2/4 256/2/4 260/2/4
f 259/4/4 254/4/4 260/4/4
f 254/2/4 255/2/4 260/2/4
f 260/2/4 256/2/4 261/2/4
f 258/4/4 259/4/4 263/4/4
f 263/4/4 259/4/4 264/4/4
f 261/2/4 262/2/4 265/2/4
f 264/4/4 259/4/4 265/4/4
f 260/2/4 261/2/4 265/2/4
f 259/2/4 260/2/4 265/2/4
f 265/2/4 262/2/4 266/2/4
f 266/2/4 267/2/4 268/2/4
f 265/2/4 266/2/4 268/2/4
f 264/2/4 265/2/4 268/2/4
f 268/2/4 267/2/4 269/2/4
f 269/2/4 267/2/4 270/2/4
f 270/2/4 267/2/4 271/2/4
f 269/2/4 270/2/4 272/2/4
f 272/2/4 270/2/4 273/2/4
f 274/1/4 275/1/4 276/1/4
f 276/1/4 275/1/4 277/1/4
f 278/1/4 279/1/4 280/1/4
f 280/1/4 279/1/4 281/1/4
f 282/3/4 283/3/4 284/3/4
f 284/3/4 283/3/4 285/3/4
f 285/3/4 283/3/4 286/3/4
f 286/3/4 283/3/4 287/3/4
f 288/3/4 289/3/4 290/3/4
f 290/5/4 291/5/4 292/5/4
f 292/5/4 291/5/4 293/5/4
f 290/5/4 292/5/4 294/5/4
f 292/6/4 293/6/4 294/6/4
f 293/5/4 291/5/4 295/5/4
f 294/6/4 293/6/4 295/6/4
f 288/3/4 290/3/4 296/3/4
f 290/5/4 294/5/4 296/5/4
f 294/5/4 295/5/4 296/5/4
f 295/5/4 291/5/4 297/5/4
f 296/5/4 295/5/4 297/5/4
f 288/3/4 296/3/4 299/3/4
f 297/3/4 298/3/4 299/3/4
f 296/3/4 297/3/4 299/3/4
f 299/3/4 298/3/4 300/3/4
f 300/3/4 298/3/4 302/3/4
f 288/3/4 299/3/4 303/3/4
f 301/3/4 302/3/4 304/3/4
f 288/3/4 303/3/4 305/3/4
f 303/3/4 304/3/4 305/3/4
f 304/3/4 302/3/4 306/3/4
f 305/3/4 304/3/4 306/3/4
f 302/3/4 298/3/4 306/3/4
f 307/4/4 308/4/4 309/4/4
f 309/4/4 308/4/4 310/4/4
f 311/4/4 312/4/4 313/4/4
f 313/4/4 312/4/4 314/4/4
f 315/4/4 316/4/4 317/4/4
f 317/4/4 316/4/4 318/4/4
f 319/4/4 320/4/4 321/4/4
f 321/4/4 320/4/4 322/4/4
f 325/3/5 324/3/5 323/3/5
f 326/3/5 324/3/5 325/3/5
f 329/4/5 328/4/5 327/4/5
f 331/4/5 330/4/5 329/4/5
f 333/4/5 329/4/5 327/4/5
f 333/4/5 332/4/5 331/4/5
f 333/4/5 331/4/5 329/4/5
f 334/4/5 332/4/5 333/4/5
f 339/1/5 336/1/5 335/1/5
f 340/1/5 336/1/5 339/1/5
f 341/4/5 338/4/5 337/4/5
f 342/4/5 338/4/5 341/4/5
f 345/4/5 344/4/5 343/4/5
f 346/4/5 344/4/5 345/4/5
f 347/4/5 345/4/5 343/4/5
f 348/4/5 345/4/5 347/4/5
f 349/4/5 347/4/5 343/4/5
f 350/4/5 347/4/5 349/4/5
f 354/1/5 352/1/5 351/1/5
f 355/1/5 352/1/5 354/1/5
f 356/1/5 354/1/5 353/1/5
f 357/1/5 354/1/5 356/1/5
f 359/1/5 358/1/5 357/1/5
f 360/1/5 358/1/5 359/1/5
f 363/4/5 362/4/5 361/4/5
f 364/4/5 362/4/5 363/4/5
f 367/2/5 366/2/5 365/2/5
f 368/2/5 366/2/5 367/2/5
f 371/2/5 370/2/5 369/2/5
f 372/2/5 370/2/5 371/2/5
f 373/4/6 374/4/6 375/4/6
f 373/4/6 375/4/6 377/4/6
f 375/4/6 376/4/6 377/4/6
f 377/4/6 376/4/6 378/4/6
f 378/4/6 376/4/6 379/4/6
f 379/4/6 380/4/6 383/4/6
f 378/4/6 379/4/6 383/4/6
f 383/4/6 380/4/6 384/4/6
f 381/3/6 382/3/6 385/3/6
f 385/3/6 382/3/6 386/3/6
f 387/3/6 388/3/6 389/3/6
f 389/3/6 388/3/6 390/3/6
f 391/4/6 392/4/6 394/4/6
f 394/4/6 392/4/6 395/4/6
f 395/4/6 392/4/6 396/4/6
f 393/4/6 394/4/6 397/4/6
f 394/4/6 395/4/6 397/4/6
f 397/4/6 395/4/6 398/4/6
f 393/4/6 397/4/6 399/4/6
f 399/4/6 397/4/6 400/4/6
f 401/4/6 402/4/6 403/4/6
f 403/4/6 402/4/6 404/4/6
f 405/1/6 406/1/6 407/1/6
f 407/1/6 406/1/6 408/1/6
f 409/1/6 410/1/6 411/1/6
f 411/1/6 410/1/6 412/1/6
f 413/1/6 414/1/6 415/1/6
f 415/1/6 414/1/6 416/1/6
f 417/4/6 418/4/6 419/4/6
f 419/4/6 418/4/6 420/4/6
f 421/1/6 422/1/6 424/1/6
f 424/1/6 422/1/6 425/1/6
f 423/1/6 424/1/6 426/1/6
f 426/1/6 424/1/6 427/1/6
f 427/1/6 428/1/6 429/1/6
f 429/1/6 428/1/6 430/1/6
f 431/1/6 432/1/6 433/1/6
f 433/1/6 432/1/6 434/1/6
f 435/5/6 436/5/6 437/5/6
f 437/5/6 436/5/6 438/5/6
f 439/5/6 440/5/6 441/5/6
f 441/5/6 440/5/6 442/5/6
f 443/3/6 444/3/6 446/3/6
f 445/3/6 446/3/6 447/3/6
f 447/3/6 446/3/6 448/3/6
f 446/3/6 444/3/6 449/3/6
f 448/3/6 446/3/6 449/3/6
f 447/4/6 448/4/6 450/4/6
f 450/4/6 448/4/6 451/4/6
f 450/3/6 451/3/6 453/3/6
f 451/3/6 452/3/6 453/3/6
f 453/3/6 452/3/6 454/3/6
f 454/3/6 452/3/6 455/3/6
f 455/3/6 452/3/6 456/3/6
f 457/2/6 458/2/6 461/2/6
f 461/2/6 458/2/6 462/2/6
f 459/2/6 460/2/6 463/2/6
f 463/2/6 460/2/6 464/2/6
f 465/2/6 466/2/6 467/2/6
f 467/2/6 466/2/6 468/2/6
f 469/2/6 470/2/6 471/2/6
f 471/2/6 470/2/6 472/2/6
f 473/2/6 474/2/6 475/2/6
f 475/2/6 474/2/6 476/2/6
