# MagicaVoxel @ ephtracy

# material
mtllib grass_01.mtl
usemtl palette

# normals
vn -1 0 0
vn 1 0 0
vn 0 0 1
vn 0 0 -1
vn 0 -1 0
vn 0 1 0

# texcoords
vt 0.310547 0.5
vt 0.341797 0.5
vt 0.556641 0.5
vt 0.560547 0.5
vt 0.583984 0.5

# verts
v -8 0 7
v -8 0 -7
v -8 1 7
v -8 1 6
v -8 3 7
v -8 3 6
v -8 11 8
v -8 11 7
v -8 13 7
v -8 13 -7
v -8 13 -8
v -8 14 8
v -8 14 7
v -8 15 7
v -8 15 -8
v -8 16 8
v -8 16 -8
v -5 11 8
v -5 11 7
v -5 13 8
v -5 13 7
v -4 10 8
v -4 10 7
v -4 11 8
v -4 11 7
v -3 9 8
v -3 9 7
v -3 10 8
v -3 10 7
v 1 12 8
v 1 12 7
v 1 13 8
v 1 13 7
v 2 10 8
v 2 10 7
v 2 12 8
v 2 12 7
v 7 12 8
v 7 12 7
v 7 13 8
v 7 13 7
v -7 11 8
v -7 11 7
v -7 13 8
v -7 13 7
v -2 9 8
v -2 9 7
v -2 11 8
v -2 11 7
v -1 11 8
v -1 11 7
v -1 13 8
v -1 13 7
v 3 10 8
v 3 10 7
v 3 11 8
v 3 11 7
v 4 11 8
v 4 11 7
v 4 12 8
v 4 12 7
v 6 12 8
v 6 12 7
v 6 13 8
v 6 13 7
v 8 0 7
v 8 0 -7
v 8 1 7
v 8 1 6
v 8 4 7
v 8 4 6
v 8 12 8
v 8 12 7
v 8 13 7
v 8 13 -7
v 8 13 -8
v 8 14 8
v 8 14 7
v 8 15 7
v 8 15 -8
v 8 16 8
v 8 16 -8
v -8 11 8
v -8 14 8
v -8 16 8
v -7 11 8
v -7 13 8
v -7 14 8
v -7 15 8
v -5 11 8
v -5 13 8
v -5 14 8
v -5 15 8
v -4 10 8
v -4 11 8
v -4 13 8
v -4 14 8
v -3 9 8
v -3 10 8
v -3 12 8
v -3 13 8
v -2 9 8
v -2 11 8
v -2 12 8
v -2 14 8
v -1 11 8
v -1 13 8
v -1 14 8
v -1 15 8
v 1 12 8
v 1 13 8
v 1 14 8
v 1 15 8
v 2 10 8
v 2 12 8
v 2 13 8
v 2 14 8
v 3 10 8
v 3 11 8
v 3 12 8
v 3 13 8
v 4 11 8
v 4 12 8
v 4 13 8
v 5 13 8
v 5 14 8
v 6 12 8
v 6 13 8
v 6 14 8
v 6 15 8
v 7 12 8
v 7 13 8
v 7 14 8
v 7 15 8
v 8 12 8
v 8 14 8
v 8 16 8
v -8 0 7
v -8 1 7
v -8 3 7
v -8 11 7
v -7 1 7
v -7 3 7
v -7 11 7
v -7 13 7
v -6 4 7
v -6 8 7
v -5 0 7
v -5 2 7
v -5 11 7
v -5 13 7
v -4 10 7
v -4 11 7
v -3 7 7
v -3 8 7
v -3 9 7
v -3 10 7
v -2 0 7
v -2 2 7
v -2 4 7
v -2 7 7
v -2 9 7
v -2 11 7
v -1 7 7
v -1 11 7
v -1 13 7
v 0 2 7
v 0 5 7
v 1 1 7
v 1 2 7
v 1 7 7
v 1 11 7
v 1 12 7
v 1 13 7
v 2 10 7
v 2 12 7
v 3 10 7
v 3 11 7
v 4 1 7
v 4 5 7
v 4 7 7
v 4 9 7
v 4 11 7
v 4 12 7
v 5 9 7
v 5 10 7
v 6 1 7
v 6 4 7
v 6 12 7
v 6 13 7
v 7 7 7
v 7 10 7
v 7 12 7
v 7 13 7
v 8 0 7
v 8 1 7
v 8 4 7
v 8 12 7
v -8 0 -7
v -8 13 -7
v 8 0 -7
v 8 13 -7
v -8 13 -8
v -8 15 -8
v -8 16 -8
v 8 13 -8
v 8 15 -8
v 8 16 -8
v -8 0 7
v -5 0 7
v -2 0 7
v 8 0 7
v -5 0 6
v -2 0 6
v -8 0 -7
v 8 0 -7
v -3 9 8
v -2 9 8
v -3 9 7
v -2 9 7
v -4 10 8
v -3 10 8
v 2 10 8
v 3 10 8
v -4 10 7
v -3 10 7
v 2 10 7
v 3 10 7
v -8 11 8
v -7 11 8
v -5 11 8
v -4 11 8
v -2 11 8
v -1 11 8
v 3 11 8
v 4 11 8
v -8 11 7
v -7 11 7
v -5 11 7
v -4 11 7
v -2 11 7
v -1 11 7
v 3 11 7
v 4 11 7
v 1 12 8
v 2 12 8
v 4 12 8
v 6 12 8
v 7 12 8
v 8 12 8
v 1 12 7
v 2 12 7
v 4 12 7
v 6 12 7
v 7 12 7
v 8 12 7
v -7 13 8
v -5 13 8
v -1 13 8
v 1 13 8
v 6 13 8
v 7 13 8
v -7 13 7
v -5 13 7
v -1 13 7
v 1 13 7
v 6 13 7
v 7 13 7
v -8 13 -7
v 8 13 -7
v -8 13 -8
v 8 13 -8
v -8 16 8
v 8 16 8
v -6 16 6
v -1 16 6
v 3 16 6
v 6 16 6
v 3 16 3
v 6 16 3
v -6 16 2
v -1 16 2
v -4 16 -0
v 3 16 -0
v -4 16 -4
v 3 16 -4
v 4 16 -4
v 6 16 -4
v -7 16 -5
v -4 16 -5
v -7 16 -7
v -4 16 -7
v 4 16 -7
v 6 16 -7
v -8 16 -8
v 8 16 -8

# faces
f 3/1/1 2/1/1 1/1/1
f 4/1/1 2/1/1 3/1/1
f 5/2/1 4/2/1 3/2/1
f 6/1/1 2/1/1 4/1/1
f 6/2/1 4/2/1 5/2/1
f 8/1/1 6/1/1 5/1/1
f 9/1/1 6/1/1 8/1/1
f 9/5/1 8/5/1 7/5/1
f 10/1/1 2/1/1 6/1/1
f 10/1/1 6/1/1 9/1/1
f 12/5/1 9/5/1 7/5/1
f 12/5/1 11/5/1 10/5/1
f 12/5/1 10/5/1 9/5/1
f 13/5/1 11/5/1 12/5/1
f 14/3/1 13/3/1 12/3/1
f 14/5/1 11/5/1 13/5/1
f 15/5/1 11/5/1 14/5/1
f 16/3/1 14/3/1 12/3/1
f 16/3/1 15/3/1 14/3/1
f 17/3/1 15/3/1 16/3/1
f 20/5/1 19/5/1 18/5/1
f 21/5/1 19/5/1 20/5/1
f 24/5/1 23/5/1 22/5/1
f 25/5/1 23/5/1 24/5/1
f 28/5/1 27/5/1 26/5/1
f 29/5/1 27/5/1 28/5/1
f 32/5/1 31/5/1 30/5/1
f 33/5/1 31/5/1 32/5/1
f 36/5/1 35/5/1 34/5/1
f 37/5/1 35/5/1 36/5/1
f 40/5/1 39/5/1 38/5/1
f 41/5/1 39/5/1 40/5/1
f 42/5/2 43/5/2 44/5/2
f 44/5/2 43/5/2 45/5/2
f 46/5/2 47/5/2 48/5/2
f 48/5/2 47/5/2 49/5/2
f 50/5/2 51/5/2 52/5/2
f 52/5/2 51/5/2 53/5/2
f 54/5/2 55/5/2 56/5/2
f 56/5/2 55/5/2 57/5/2
f 58/5/2 59/5/2 60/5/2
f 60/5/2 59/5/2 61/5/2
f 62/5/2 63/5/2 64/5/2
f 64/5/2 63/5/2 65/5/2
f 66/1/2 67/1/2 68/1/2
f 68/1/2 67/1/2 69/1/2
f 68/2/2 69/2/2 70/2/2
f 69/1/2 67/1/2 71/1/2
f 70/2/2 69/2/2 71/2/2
f 70/1/2 71/1/2 73/1/2
f 73/1/2 71/1/2 74/1/2
f 72/5/2 73/5/2 74/5/2
f 71/1/2 67/1/2 75/1/2
f 74/1/2 71/1/2 75/1/2
f 72/5/2 74/5/2 77/5/2
f 75/5/2 76/5/2 77/5/2
f 74/5/2 75/5/2 77/5/2
f 77/5/2 76/5/2 78/5/2
f 77/3/2 78/3/2 79/3/2
f 78/5/2 76/5/2 79/5/2
f 79/5/2 76/5/2 80/5/2
f 77/3/2 79/3/2 81/3/2
f 79/3/2 80/3/2 81/3/2
f 81/3/2 80/3/2 82/3/2
f 86/5/3 84/5/3 83/5/3
f 87/5/3 84/5/3 86/5/3
f 88/3/3 85/3/3 84/3/3
f 88/5/3 84/5/3 87/5/3
f 89/3/3 85/3/3 88/3/3
f 91/5/3 88/5/3 87/5/3
f 91/5/3 89/5/3 88/5/3
f 92/5/3 89/5/3 91/5/3
f 93/3/3 85/3/3 89/3/3
f 93/5/3 89/5/3 92/5/3
f 95/5/3 92/5/3 91/5/3
f 95/5/3 91/5/3 90/5/3
f 96/5/3 92/5/3 95/5/3
f 97/3/3 93/3/3 92/3/3
f 97/5/3 92/5/3 96/5/3
f 99/5/3 96/5/3 95/5/3
f 99/5/3 95/5/3 94/5/3
f 100/5/3 96/5/3 99/5/3
f 101/3/3 97/3/3 96/3/3
f 101/5/3 96/5/3 100/5/3
f 102/5/3 100/5/3 99/5/3
f 102/5/3 99/5/3 98/5/3
f 103/5/3 100/5/3 102/5/3
f 104/3/3 101/3/3 100/3/3
f 104/5/3 100/5/3 103/5/3
f 105/3/3 93/3/3 97/3/3
f 105/3/3 101/3/3 104/3/3
f 105/3/3 97/3/3 101/3/3
f 106/5/3 104/5/3 103/5/3
f 106/5/3 105/5/3 104/5/3
f 107/5/3 105/5/3 106/5/3
f 108/3/3 93/3/3 105/3/3
f 108/5/3 105/5/3 107/5/3
f 109/3/3 85/3/3 93/3/3
f 109/3/3 93/3/3 108/3/3
f 111/5/3 108/5/3 107/5/3
f 111/5/3 109/5/3 108/5/3
f 112/5/3 109/5/3 111/5/3
f 113/3/3 85/3/3 109/3/3
f 113/5/3 109/5/3 112/5/3
f 115/5/3 112/5/3 111/5/3
f 115/5/3 111/5/3 110/5/3
f 116/5/3 112/5/3 115/5/3
f 117/3/3 113/3/3 112/3/3
f 117/5/3 112/5/3 116/5/3
f 118/5/3 116/5/3 115/5/3
f 118/5/3 115/5/3 114/5/3
f 119/5/3 116/5/3 118/5/3
f 120/5/3 116/5/3 119/5/3
f 121/3/3 117/3/3 116/3/3
f 121/5/3 116/5/3 120/5/3
f 122/5/3 120/5/3 119/5/3
f 123/3/3 121/3/3 120/3/3
f 123/5/3 120/5/3 122/5/3
f 124/3/3 117/3/3 121/3/3
f 124/3/3 121/3/3 123/3/3
f 125/3/3 117/3/3 124/3/3
f 125/5/3 124/5/3 123/5/3
f 126/3/3 113/3/3 117/3/3
f 126/3/3 117/3/3 125/3/3
f 127/5/3 125/5/3 123/5/3
f 127/5/3 126/5/3 125/5/3
f 128/5/3 126/5/3 127/5/3
f 129/3/3 113/3/3 126/3/3
f 129/5/3 126/5/3 128/5/3
f 130/3/3 85/3/3 113/3/3
f 130/3/3 113/3/3 129/3/3
f 132/5/3 129/5/3 128/5/3
f 132/5/3 130/5/3 129/5/3
f 133/5/3 130/5/3 132/5/3
f 134/3/3 85/3/3 130/3/3
f 134/5/3 130/5/3 133/5/3
f 135/5/3 133/5/3 132/5/3
f 135/5/3 132/5/3 131/5/3
f 136/3/3 134/3/3 133/3/3
f 136/5/3 133/5/3 135/5/3
f 137/3/3 85/3/3 134/3/3
f 137/3/3 134/3/3 136/3/3
f 142/1/3 139/1/3 138/1/3
f 142/2/3 140/2/3 139/2/3
f 143/1/3 141/1/3 140/1/3
f 143/2/3 140/2/3 142/2/3
f 144/1/3 141/1/3 143/1/3
f 146/1/3 143/1/3 142/1/3
f 146/1/3 145/1/3 144/1/3
f 146/1/3 144/1/3 143/1/3
f 147/1/3 145/1/3 146/1/3
f 148/1/3 142/1/3 138/1/3
f 148/1/3 146/1/3 142/1/3
f 149/1/3 146/1/3 148/1/3
f 150/1/3 145/1/3 147/1/3
f 151/1/3 145/1/3 150/1/3
f 152/1/3 150/1/3 147/1/3
f 153/1/3 150/1/3 152/1/3
f 154/2/3 147/2/3 146/2/3
f 155/1/3 152/1/3 147/1/3
f 155/2/3 147/2/3 154/2/3
f 156/1/3 152/1/3 155/1/3
f 157/1/3 152/1/3 156/1/3
f 158/2/3 149/2/3 148/2/3
f 159/1/3 146/1/3 149/1/3
f 159/2/3 149/2/3 158/2/3
f 160/2/3 154/2/3 146/2/3
f 160/1/3 146/1/3 159/1/3
f 161/1/3 155/1/3 154/1/3
f 161/2/3 154/2/3 160/2/3
f 161/1/3 156/1/3 155/1/3
f 162/1/3 156/1/3 161/1/3
f 164/1/3 162/1/3 161/1/3
f 164/1/3 163/1/3 162/1/3
f 164/1/3 161/1/3 160/1/3
f 164/1/3 160/1/3 159/1/3
f 164/1/3 159/1/3 158/1/3
f 165/1/3 163/1/3 164/1/3
f 167/1/3 164/1/3 158/1/3
f 168/1/3 164/1/3 167/1/3
f 169/1/3 167/1/3 158/1/3
f 170/2/3 168/2/3 167/2/3
f 170/1/3 167/1/3 169/1/3
f 171/2/3 165/2/3 164/2/3
f 171/1/3 164/1/3 168/1/3
f 172/1/3 166/1/3 165/1/3
f 172/2/3 165/2/3 171/2/3
f 173/1/3 166/1/3 172/1/3
f 174/1/3 166/1/3 173/1/3
f 175/1/3 172/1/3 171/1/3
f 175/1/3 173/1/3 172/1/3
f 176/1/3 173/1/3 175/1/3
f 177/1/3 175/1/3 171/1/3
f 179/2/3 170/2/3 169/2/3
f 179/1/3 169/1/3 158/1/3
f 180/2/3 168/2/3 170/2/3
f 180/2/3 170/2/3 179/2/3
f 180/1/3 171/1/3 168/1/3
f 180/1/3 178/1/3 177/1/3
f 180/1/3 177/1/3 171/1/3
f 181/1/3 178/1/3 180/1/3
f 182/1/3 178/1/3 181/1/3
f 183/1/3 178/1/3 182/1/3
f 185/2/3 182/2/3 181/2/3
f 185/1/3 184/1/3 183/1/3
f 185/1/3 183/1/3 182/1/3
f 186/1/3 184/1/3 185/1/3
f 187/1/3 179/1/3 158/1/3
f 187/1/3 180/1/3 179/1/3
f 187/1/3 181/1/3 180/1/3
f 188/1/3 181/1/3 187/1/3
f 189/1/3 184/1/3 186/1/3
f 191/1/3 181/1/3 188/1/3
f 191/2/3 186/2/3 185/2/3
f 191/2/3 185/2/3 181/2/3
f 192/1/3 190/1/3 189/1/3
f 192/2/3 186/2/3 191/2/3
f 192/1/3 189/1/3 186/1/3
f 193/1/3 190/1/3 192/1/3
f 194/1/3 190/1/3 193/1/3
f 195/1/3 187/1/3 158/1/3
f 196/2/3 188/2/3 187/2/3
f 196/1/3 187/1/3 195/1/3
f 197/1/3 191/1/3 188/1/3
f 197/2/3 188/2/3 196/2/3
f 197/1/3 192/1/3 191/1/3
f 197/1/3 193/1/3 192/1/3
f 198/1/3 193/1/3 197/1/3
f 199/1/4 200/1/4 201/1/4
f 201/1/4 200/1/4 202/1/4
f 203/5/4 204/5/4 206/5/4
f 204/3/4 205/3/4 207/3/4
f 206/5/4 204/5/4 207/5/4
f 207/3/4 205/3/4 208/3/4
f 213/1/5 210/1/5 209/1/5
f 213/2/5 211/2/5 210/2/5
f 214/1/5 212/1/5 211/1/5
f 214/2/5 211/2/5 213/2/5
f 215/1/5 213/1/5 209/1/5
f 215/1/5 214/1/5 213/1/5
f 216/1/5 212/1/5 214/1/5
f 216/1/5 214/1/5 215/1/5
f 219/5/5 218/5/5 217/5/5
f 220/5/5 218/5/5 219/5/5
f 225/5/5 222/5/5 221/5/5
f 226/5/5 222/5/5 225/5/5
f 227/5/5 224/5/5 223/5/5
f 228/5/5 224/5/5 227/5/5
f 237/5/5 230/5/5 229/5/5
f 238/5/5 230/5/5 237/5/5
f 239/5/5 232/5/5 231/5/5
f 240/5/5 232/5/5 239/5/5
f 241/5/5 234/5/5 233/5/5
f 242/5/5 234/5/5 241/5/5
f 243/5/5 236/5/5 235/5/5
f 244/5/5 236/5/5 243/5/5
f 251/5/5 246/5/5 245/5/5
f 252/5/5 246/5/5 251/5/5
f 253/5/5 248/5/5 247/5/5
f 254/5/5 248/5/5 253/5/5
f 255/5/5 250/5/5 249/5/5
f 256/5/5 250/5/5 255/5/5
f 263/5/5 258/5/5 257/5/5
f 264/5/5 258/5/5 263/5/5
f 265/5/5 260/5/5 259/5/5
f 266/5/5 260/5/5 265/5/5
f 267/5/5 262/5/5 261/5/5
f 268/5/5 262/5/5 267/5/5
f 271/5/5 270/5/5 269/5/5
f 272/5/5 270/5/5 271/5/5
f 273/3/6 274/3/6 275/3/6
f 275/3/6 274/3/6 276/3/6
f 276/3/6 274/3/6 277/3/6
f 277/3/6 274/3/6 278/3/6
f 276/3/6 277/3/6 279/3/6
f 277/4/6 278/4/6 279/4/6
f 278/3/6 274/3/6 280/3/6
f 279/4/6 278/4/6 280/4/6
f 273/3/6 275/3/6 281/3/6
f 275/4/6 276/4/6 281/4/6
f 279/3/6 280/3/6 282/3/6
f 281/4/6 276/4/6 282/4/6
f 276/3/6 279/3/6 282/3/6
f 281/3/6 282/3/6 283/3/6
f 282/3/6 280/3/6 284/3/6
f 283/3/6 282/3/6 284/3/6
f 281/3/6 283/3/6 285/3/6
f 283/4/6 284/4/6 285/4/6
f 284/3/6 280/3/6 286/3/6
f 285/4/6 284/4/6 286/4/6
f 286/3/6 280/3/6 287/3/6
f 280/3/6 274/3/6 288/3/6
f 287/3/6 280/3/6 288/3/6
f 286/3/6 287/3/6 289/3/6
f 273/3/6 281/3/6 289/3/6
f 281/3/6 285/3/6 289/3/6
f 285/3/6 286/3/6 289/3/6
f 289/3/6 287/3/6 290/3/6
f 273/3/6 289/3/6 291/3/6
f 289/4/6 290/4/6 291/4/6
f 290/3/6 287/3/6 292/3/6
f 291/4/6 290/4/6 292/4/6
f 287/4/6 288/4/6 293/4/6
f 292/3/6 287/3/6 293/3/6
f 288/3/6 274/3/6 294/3/6
f 293/4/6 288/4/6 294/4/6
f 292/3/6 293/3/6 295/3/6
f 291/3/6 292/3/6 295/3/6
f 293/3/6 294/3/6 295/3/6
f 273/3/6 291/3/6 295/3/6
f 294/3/6 274/3/6 296/3/6
f 295/3/6 294/3/6 296/3/6
